<?xml version="1.0" encoding="utf-8"?><svg xmlns="http://www.w3.org/2000/svg" xmlns:xlink="http://www.w3.org/1999/xlink"><symbol viewBox="0 0 23.90875 13.915" id="arrow-left"><title>arrow-left</title><path d="M23 8H3.3l4.3 4.2a1 1 0 0 1-1.4 1.4l-6-6a1 1 0 0 1 0-1.3l6-6a1 1 0 0 1 1.4 1.4L3.4 6H23a1 1 0 1 1 0 2z"/></symbol><symbol id="arrow_down" viewBox="0 0 20 20"><style>.bst0{fill:inherit}</style><path id="bXMLID_4_" class="bst0" d="M1 6l9 9 9-9-.8-1-8.2 8.2L1.8 5z"/></symbol><symbol id="burger" viewBox="0 0 23 16"><defs><style>.ccls-1{fill:inherit;fill-rule:evenodd}</style></defs><path class="ccls-1" d="M0 2V0h23v2H0zm0 7V7h23v2H0zm0 7v-2h23v2H0z"/></symbol><symbol id="close" viewBox="0 0 17 17"><defs><style>.dcls-1{fill:inherit;fill-rule:evenodd}</style></defs><path class="dcls-1" d="M0 .8L.8 0 17 16.2l-.8.8z"/><path class="dcls-1" d="M.8 17l-.8-.8L16.2 0l.8.8z"/></symbol><symbol id="cross" viewBox="0 0 19 19"><defs><style>.ecls-1{fill:inherit;fill-rule:evenodd}</style></defs><path class="ecls-1" d="M9 0h1v19H9V0z"/><path class="ecls-1" d="M0 10V9h19v1H0z"/></symbol><symbol viewBox="0 0 12.594 24.375" id="facebook"><defs><style>.fcls-1{fill:inherit;fill-rule:evenodd}</style></defs><path id="ffacebook.svg" class="fcls-1" d="M12 0H9C5.8 0 3.6 2.4 3.6 6v2.8h-3a.5.5 0 0 0-.5.5v4a.5.5 0 0 0 .5.5h3v10a.5.5 0 0 0 .5.6h4a.5.5 0 0 0 .4-.5V13.7H12a.5.5 0 0 0 .5-.5v-4a.5.5 0 0 0-.2-.4.5.5 0 0 0-.3-.2H8.4V6.4c0-1 .3-1.7 1.7-1.7h2a.5.5 0 0 0 .6-.5V.5A.5.5 0 0 0 12 0z"/></symbol><symbol viewBox="0 0 61.89999 25.26322" id="imdb"><title>imdb</title><path d="M18.6 11L20 .4h8.4V25h-5.6V9.6L20.4 25h-4l-2-15v15h-6V1c0-.6.2-.7.7-.7h7c.6 0 .7 0 .8.6l1.5 10zM30.4.3h8.4a11.6 11.6 0 0 1 2.8.5A4.4 4.4 0 0 1 45 5v16.5c-.5 2-1.6 3.3-3.7 3.4H30.5V.5zM37 20.6c1.2.2 1.6-.2 1.8-1.3V6c0-1.2-.5-1.6-1.8-1.4v16zm16.4 3c-.4 1.3-.4 1.3-1.8 1.3h-4.2V0H53c.5 0 .6.2.5.7v7a8.7 8.7 0 0 1 2.7-1.3 7.6 7.6 0 0 1 3 0A3.8 3.8 0 0 1 62 10v11.7a4.2 4.2 0 0 1-4 3.5c-2 .2-2.7 0-4.5-1.7zm0-7.7v3.4a3.2 3.2 0 0 0 .2 1.4 1 1 0 0 0 1 .7 1 1 0 0 0 1-.8V11l-.6-.6c-.8-.4-1.4 0-1.4 1a33.8 33.8 0 0 0 0 4.5h-.2zm-47 9H0V.3h5.8c.4 0 .5 0 .5.4V25z"/></symbol><symbol id="insta" viewBox="0 0 24 24"><style>.hst0{fill:inherit}</style><g id="hXMLID_2_"><path id="hXMLID_7_" class="hst0" d="M12 2.2c3.2 0 3.6 0 4.8.1 1.2.1 1.8.2 2.2.4.6.2 1 .5 1.4.9.5.4.7.8 1 1.4.2.4.4 1.1.4 2.2.1 1.3.1 1.6.1 4.8s0 3.6-.1 4.8c-.1 1.2-.2 1.8-.4 2.2-.2.6-.5 1-.9 1.4-.4.4-.8.7-1.4.9-.4.2-1.1.4-2.2.4-1.3.1-1.6.1-4.8.1s-3.6 0-4.8-.1c-1.2-.1-1.8-.2-2.2-.4-.6-.2-1-.5-1.4-.9-.4-.4-.7-.8-.9-1.4-.2-.4-.4-1.1-.4-2.2-.1-1.3-.1-1.6-.1-4.8s0-3.6.1-4.8c-.1-1.2.1-1.8.2-2.2.2-.6.5-1 .9-1.4.5-.4.9-.7 1.4-.9.4-.2 1.1-.4 2.3-.4 1.2-.1 1.6-.1 4.8-.1M12 0C8.7 0 8.3 0 7.1.1c-1.3.1-2.2.3-3 .6A8 8 0 0 0 2 2C1.3 2.7.9 3.4.6 4.2.3 4.9.1 5.8.1 7.1 0 8.4 0 8.8 0 12c0 3.3 0 3.7.1 4.9.1 1.3.3 2.1.6 2.9.2.9.6 1.6 1.3 2.2.7.7 1.3 1.1 2.1 1.4.8.3 1.6.5 2.9.6h5s3.7 0 4.9-.1c1.3-.1 2.1-.3 2.9-.6.8-.3 1.5-.7 2.1-1.4.7-.7 1.1-1.3 1.4-2.1.3-.8.5-1.6.6-2.9.1-1.2.1-1.6.1-4.9s0-3.7-.1-4.9c-.1-1.3-.3-2.1-.6-2.9-.2-.8-.6-1.5-1.3-2.2-.7-.7-1.3-1.1-2.1-1.4C19.1.3 18.3.1 17 0h-5z"/><path id="hXMLID_4_" class="hst0" d="M12 5.9c-3.4 0-6.2 2.8-6.2 6.2s2.8 6.2 6.2 6.2 6.2-2.8 6.2-6.2-2.8-6.2-6.2-6.2zM12 16c-2.2 0-4-1.8-4-4s1.8-4 4-4 4 1.8 4 4-1.8 4-4 4z"/><circle id="hXMLID_3_" class="hst0" cx="18.4" cy="5.6" r="1.4"/></g></symbol><symbol id="square" viewBox="0 0 19 19"><style>.ist0{fill:inherit}</style><g id="iXMLID_2_"><path id="iXMLID_3_" class="ist0" d="M1 12H0v7h7v-1H1v-6zM0 0v7h1V1h6V0H0zm18 18h-6.2v1H19v-7h-1v6zM12 0v1h6v6h1V0h-7z"/></g></symbol></svg>