<?xml version="1.0" encoding="utf-8"?><svg xmlns="http://www.w3.org/2000/svg" xmlns:xlink="http://www.w3.org/1999/xlink"><symbol viewBox="0 0 23.90875 13.915" id="arrow-left"><title>arrow-left</title><path d="M23 8H3.3l4.3 4.2a1 1 0 0 1-1.4 1.4l-6-6a1 1 0 0 1 0-1.3l6-6a1 1 0 0 1 1.4 1.4L3.4 6H23a1 1 0 1 1 0 2z"/></symbol><symbol id="arrow_down" viewBox="0 0 20 20"><style>.bst0{fill:inherit}</style><path id="bXMLID_4_" class="bst0" d="M1 6l9 9 9-9-.8-1-8.2 8.2L1.8 5z"/></symbol><symbol id="burger" viewBox="0 0 23 16"><defs><style>.ccls-1{fill:inherit;fill-rule:evenodd}</style></defs><path class="ccls-1" d="M0 2V0h23v2H0zm0 7V7h23v2H0zm0 7v-2h23v2H0z"/></symbol><symbol id="cross" viewBox="0 0 19 19"><defs><style>.dcls-1{fill:inherit;fill-rule:evenodd}</style></defs><path class="dcls-1" d="M9 0h1v19H9V0z"/><path class="dcls-1" d="M0 10V9h19v1H0z"/></symbol><symbol viewBox="0 0 12.594 24.375" id="facebook"><defs><style>.ecls-1{fill:inherit;fill-rule:evenodd}</style></defs><path id="efacebook.svg" class="ecls-1" d="M12 0H9C5.8 0 3.6 2.4 3.6 6v2.8h-3a.5.5 0 0 0-.5.5v4a.5.5 0 0 0 .5.5h3v10a.5.5 0 0 0 .5.6h4a.5.5 0 0 0 .4-.5V13.7H12a.5.5 0 0 0 .5-.5v-4a.5.5 0 0 0-.2-.4.5.5 0 0 0-.3-.2H8.4V6.4c0-1 .3-1.7 1.7-1.7h2a.5.5 0 0 0 .6-.5V.5A.5.5 0 0 0 12 0z"/></symbol><symbol viewBox="0 0 19 15.719" id="twitter"><defs><style>.fcls-1{fill:inherit;fill-rule:evenodd}</style></defs><path id="ftwitter.svg" class="fcls-1" d="M18.5.3a7.7 7.7 0 0 1-2.5 1A4 4 0 0 0 13.2 0a4 4 0 0 0-4 4 4 4 0 0 0 .2 1 11 11 0 0 1-8-4.3 4 4 0 0 0 1 5.3A3.8 3.8 0 0 1 1 5.5a4 4 0 0 0 3 4 3.8 3.8 0 0 1-1 0 4 4 0 0 1-.7 0A4 4 0 0 0 6 12.3 7.7 7.7 0 0 1 1 14a8.2 8.2 0 0 1-.8 0 11 11 0 0 0 6 1.7c7 0 11-6 11-11.3V4a8 8 0 0 0 2-2.2 7.6 7.6 0 0 1-2.2.7A4 4 0 0 0 18.5.3z"/></symbol></svg>