<?xml version="1.0" standalone="no"?>
<!DOCTYPE svg PUBLIC "-//W3C//DTD SVG 20010904//EN"
 "http://www.w3.org/TR/2001/REC-SVG-20010904/DTD/svg10.dtd">
<svg version="1.0" xmlns="http://www.w3.org/2000/svg"
 width="200.000000pt" height="200.000000pt" viewBox="0 0 200.000000 200.000000"
 preserveAspectRatio="xMidYMid meet">
<metadata>
Created by potrace 1.11, written by Peter Selinger 2001-2013
</metadata>
<g transform="translate(0.000000,200.000000) scale(0.100000,-0.100000)"
fill="#000000" stroke="none">
<path d="M1502 1529 c-67 -13 -145 -52 -187 -94 -54 -55 -78 -115 -79 -200 -2
-173 77 -246 338 -314 192 -50 239 -82 239 -161 0 -82 -68 -129 -185 -130 -89
0 -177 29 -260 86 -68 46 -69 46 -83 26 -8 -11 -33 -40 -55 -63 l-40 -44 36
-32 c44 -39 154 -97 214 -113 76 -21 102 -24 195 -24 129 0 210 29 278 98 67
67 87 120 84 223 -2 65 -7 86 -30 125 -48 83 -114 120 -304 173 -70 20 -146
45 -168 55 -98 47 -99 166 -2 211 83 37 202 20 311 -46 33 -20 63 -34 67 -33
5 2 29 32 54 68 l46 65 -28 22 c-37 30 -126 73 -188 89 -64 18 -198 25 -253
13z"/>
<path d="M436 1483 c-11 -27 -31 -75 -46 -108 -15 -33 -56 -125 -90 -205 -63
-147 -80 -185 -131 -298 -16 -34 -29 -65 -29 -67 0 -2 -11 -28 -24 -57 -67
-146 -114 -263 -106 -268 13 -8 172 -2 180 7 4 4 29 61 56 125 l49 118 245 0
245 0 49 -117 c27 -65 52 -122 56 -127 8 -8 187 -13 193 -5 2 2 -51 130 -119
284 -67 154 -129 296 -138 315 -8 19 -56 127 -105 240 l-90 205 -88 3 -88 3
-19 -48z m192 -382 c45 -104 82 -193 82 -198 0 -9 -340 -12 -340 -3 -1 12 164
390 170 390 3 0 43 -85 88 -189z"/>
</g>
</svg>
